<?xml version="1.0" encoding="UTF-8" standalone="no"?>
<svg
   xmlns:dc="http://purl.org/dc/elements/1.1/"
   xmlns:cc="http://creativecommons.org/ns#"
   xmlns:rdf="http://www.w3.org/1999/02/22-rdf-syntax-ns#"
   xmlns:svg="http://www.w3.org/2000/svg"
   xmlns="http://www.w3.org/2000/svg"
   xmlns:sodipodi="http://sodipodi.sourceforge.net/DTD/sodipodi-0.dtd"
   xmlns:inkscape="http://www.inkscape.org/namespaces/inkscape"
   id="e37c00f5-ff96-45aa-87ea-1a24b78ba7bd"
   data-name="Layer 1"
   width="1176.60617"
   height="873.97852"
   viewBox="0 0 1176.60617 873.97852"
   version="1.1"
   sodipodi:docname="world_bg_medium.svg"
   inkscape:version="0.92.3 (2405546, 2018-03-11)">
  <metadata
     id="metadata73">
    <rdf:RDF>
      <cc:Work
         rdf:about="">
        <dc:format>image/svg+xml</dc:format>
        <dc:type
           rdf:resource="http://purl.org/dc/dcmitype/StillImage" />
        <dc:title>connected world</dc:title>
      </cc:Work>
    </rdf:RDF>
  </metadata>
  <defs
     id="defs71" />
  <sodipodi:namedview
     pagecolor="#ffffff"
     bordercolor="#666666"
     borderopacity="1"
     objecttolerance="10"
     gridtolerance="10"
     guidetolerance="10"
     inkscape:pageopacity="0"
     inkscape:pageshadow="2"
     inkscape:window-width="1366"
     inkscape:window-height="715"
     id="namedview69"
     showgrid="false"
     inkscape:zoom="0.24137218"
     inkscape:cx="72.502143"
     inkscape:cy="436.98926"
     inkscape:window-x="-8"
     inkscape:window-y="22"
     inkscape:window-maximized="1"
     inkscape:current-layer="e37c00f5-ff96-45aa-87ea-1a24b78ba7bd" />
  <title
     id="title2">connected world</title>
  <path
     d="M 930.3807,282.02679 C 838.21757,153.77782 643.52733,101.75448 452.05573,157.78486 350.83045,187.40644 253.23061,246.75768 204.8625,361.6808 c -86.4632,205.43752 95.0772,271.04925 213.78488,291.96051 57.4006,10.11155 111.46223,27.09673 160.86423,50.22208 88.87867,41.60458 246.20001,78.47064 364.83071,-94.83175 85.98368,-125.6098 47.42813,-241.57837 -13.96162,-327.00485 z"
     id="path4"
     style="opacity:0.28400005;fill:#f2f2f2;stroke-width:0.69014084"
     inkscape:connector-curvature="0" />
  <path
     d="m 396.04979,307.40027 a 23.730775,23.730775 0 0 0 -1.55116,-5.93835 2.6880019,2.6880019 0 0 0 -1.36655,-1.68309 2.8158505,2.8158505 0 0 0 -1.35594,-0.0152 l -6.96165,1.06524 a 2.668678,2.668678 0 0 0 -1.58838,0.61717 c -0.90672,0.95356 -0.0139,2.48903 -0.0416,3.80457 -0.0312,1.47931 -1.34559,2.68008 -2.77091,3.07734 a 10.474481,10.474481 0 0 1 -4.40288,-0.0546 l -9.73444,-1.51275 a 16.049991,16.049991 0 0 0 7.3642,-4.91429 c 1.28103,-1.51755 1.96255,-4.35078 0.11118,-5.06942 a 4.5448465,4.5448465 0 0 0 -1.69077,-0.13576 c -4.41038,0.0343 -7.88098,-3.64808 -12.00984,-5.19898 a 13.278924,13.278924 0 0 0 -14.94475,4.45512 l 5.18565,0.25002 a 2.3017301,2.3017301 0 0 1 1.3813,0.36839 c 1.13645,0.93372 -0.27645,2.72721 -0.11635,4.18932 0.20801,1.8996 2.73024,2.30519 4.63153,2.49727 1.9013,0.19209 4.31331,1.73686 3.39875,3.41476 -9.55613,3.29155 -19.28053,-6.43428 -29.31649,-5.23706 -2.54004,0.30301 -4.93854,1.30087 -7.41845,1.92831 -15.1491,3.83292 -30.81058,-6.39374 -46.28623,-4.22792 a 58.774332,58.774332 0 0 0 -10.10395,2.66479 c -2.10626,0.69158 -4.30322,1.43894 -5.83362,3.04283 -1.53039,1.60389 -2.11285,4.34683 -0.66304,6.02392 a 33.903631,33.903631 0 0 1 -11.8813,-1.12938 6.6564083,6.6564083 0 0 1 3.42218,5.86639 70.494677,70.494677 0 0 0 -18.05909,5.50646 30.416867,30.416867 0 0 0 3.7378,4.97922 l -7.89889,5.07461 c 2.66862,0.67237 4.04836,4.31126 2.49646,6.58394 2.76706,-1.23098 4.48195,-4.41544 7.44086,-5.06107 1.93848,-0.42297 3.91093,0.37003 5.74987,1.11497 1.83895,0.74493 3.86013,1.46728 5.76383,0.90819 1.90369,-0.55909 3.30784,-3.02753 2.09818,-4.60023 a 98.496264,98.496264 0 0 1 25.01947,-3.90891 3.1377598,3.1377598 0 0 1 1.89485,0.3596 c 1.10302,0.76525 0.81281,2.41812 0.75339,3.75928 -0.0594,1.34116 0.98588,3.10379 2.18454,2.49927 -1.41023,1.22287 -0.20467,3.525 1.14831,4.81093 1.35297,1.28593 2.98369,3.06032 2.15537,4.73306 -0.21619,0.43658 -0.58286,0.78589 -0.79087,1.22642 -0.61398,1.30033 0.36087,2.8163 1.51072,3.67983 1.14985,0.86353 2.5583,1.46704 3.35704,2.66282 0.79874,1.19577 0.43601,3.28885 -0.99227,3.45583 l -4.05965,-5.15445 a 10.568506,10.568506 0 0 0 -2.74237,5.19691 c 4.30492,3.51919 4.95245,10.68216 1.34839,14.9163 -1.84176,2.16375 -4.46089,3.47854 -6.74681,5.16626 -2.28593,1.68773 -4.40114,4.09104 -4.39539,6.93247 0.01,4.90904 -0.39118,9.46974 1.44835,14.0211 a 215.99061,215.99061 0 0 0 11.72581,24.46371 c 1.16001,2.07467 2.65922,4.34862 5.00918,4.70584 q -4.45483,-10.84501 -8.02045,-22.02748 c 1.54825,0.006 3.33743,0.12898 4.24505,1.38331 0.75157,1.03867 0.59012,2.45084 0.82365,3.71148 a 11.497111,11.497111 0 0 0 1.46618,3.44678 l 14.18205,25.26248 c 1.17567,2.09422 2.52423,4.34215 4.77116,5.19025 1.43658,0.54223 3.09864,0.44008 4.42091,1.22073 1.03642,0.6119 1.73448,1.69808 2.79106,2.27447 2.98751,1.62976 7.14196,-1.49586 9.93388,0.44998 0.7983,0.55637 1.30615,1.44026 2.04172,2.07726 2.57857,2.23303 6.80851,0.73919 9.7852,2.40497 1.91842,1.07358 2.91266,3.22066 3.93591,5.1664 2.56314,4.87384 6.71043,9.64874 12.20347,10.03683 1.72547,0.12191 3.48797,-0.20525 5.1746,0.17853 1.68664,0.38379 3.34695,1.85575 3.07621,3.56421 -0.46415,2.92896 0.98297,6.13612 0.59432,9.07604 -0.70794,5.35515 -8.30385,7.70845 -8.95631,13.07064 -0.14286,1.17405 0.0808,2.3859 -0.1988,3.5351 -0.34263,1.40848 -1.40041,2.55523 -1.77628,3.9552 -0.7123,2.65305 1.18847,5.29338 3.27658,7.07826 2.0881,1.78489 4.57883,3.324 5.72042,5.82256 1.20664,2.64092 0.61395,5.72023 1.00637,8.59708 0.8567,6.28055 6.28136,10.9365 11.86408,13.93859 1.70094,0.91467 3.52727,1.80019 4.62819,3.38695 1.43694,2.07105 1.29379,4.80131 1.77361,7.27596 1.17511,6.0605 6.27701,11.05411 6.42188,17.22579 0.10296,4.38662 -2.33544,8.36615 -3.79204,12.50516 a 29.163178,29.163178 0 0 0 2.38144,24.1864 c 1.08963,1.83991 2.39287,3.57462 3.16368,5.56926 1.37552,3.55943 0.9292,7.60567 2.19746,11.20471 1.67676,4.75825 6.28416,8.68842 5.84319,13.71415 2.09175,4.34379 6.71071,6.47811 11.35532,7.77099 l 8.32419,2.31714 c 1.59387,0.44368 3.2594,0.89088 4.88239,0.56963 1.62298,-0.32126 3.17188,-1.66892 3.12999,-3.32287 -4.08207,-0.9206 -8.29506,-1.89955 -11.66004,-4.38704 -3.36499,-2.48748 -5.67007,-6.91708 -4.39334,-10.90215 0.59201,-1.84786 1.8515,-3.98171 0.65408,-5.50856 -0.68561,-0.87421 -1.9393,-1.10262 -2.71261,-1.90026 -1.20619,-1.24408 -0.79179,-3.33407 0.0754,-4.8343 0.86714,-1.50023 2.12051,-2.8409 2.47027,-4.53805 a 4.7349872,4.7349872 0 0 0 -2.21938,-4.92617 11.769896,11.769896 0 0 0 4.12014,-2.64364 c 1.08352,-1.23736 1.58402,-3.14498 0.73168,-4.55159 2.53111,0.32101 5.51935,0.47822 7.18088,-1.45799 1.3268,-1.54614 1.23567,-3.85768 0.71141,-5.82647 -0.52426,-1.96879 -1.41038,-3.88106 -1.43798,-5.91826 a 107.84595,107.84595 0 0 0 17.49714,-0.5933 11.345425,11.345425 0 0 0 -5.31971,-6.6623 c 2.62985,-0.44497 5.02569,-3.59341 5.85654,-6.12792 0.83085,-2.5345 0.61896,-5.29523 0.10542,-7.91255 a 4.2456774,4.2456774 0 0 1 -0.0787,-2.07298 c 0.29615,-0.94377 1.22326,-1.51969 2.08101,-2.01227 l 13.05359,-7.4968 a 7.6035714,7.6035714 0 0 0 2.08741,-1.54101 c 1.36763,-1.60644 1.16504,-4.03145 0.46477,-6.0216 -0.70027,-1.99014 -1.82197,-3.86156 -2.09171,-5.954 -0.80677,-6.2579 5.89216,-10.74792 8.15294,-16.63868 0.88722,-2.31176 1.06804,-4.82459 1.23973,-7.29479 0.1844,-2.6531 0.19811,-5.73478 -1.83899,-7.4445 -1.95274,-1.63889 -5.00387,-1.27331 -7.0472,-2.79774 -1.87338,-1.39766 -2.51971,-4.11209 -4.56626,-5.241 -1.85859,-1.0252 -4.18889,-0.37318 -6.25599,-0.85535 -3.63955,-0.84896 -5.92993,-5.04365 -9.64695,-5.43205 -2.09721,-0.21914 -4.47078,0.80613 -6.18966,-0.41525 -1.51459,-1.07622 -1.57529,-3.23936 -1.86359,-5.07488 a 14.172649,14.172649 0 0 0 -11.43887,-11.4757 c -2.16235,-0.34677 -4.51603,-0.21507 -6.35557,-1.40338 -1.86269,-1.20327 -2.71676,-3.45606 -4.17991,-5.12241 -2.35815,-2.68564 -6.07215,-3.6398 -9.5513,-4.45771 l -14.15169,-3.32687 c -2.5122,-0.59058 -5.7504,-0.90374 -7.09851,1.29683 a 10.171351,10.171351 0 0 0 -0.8397,2.64094 8.1784863,8.1784863 0 0 1 -7.69117,5.78904 9.0954212,9.0954212 0 0 0 -5.36346,-4.15 c -1.435,-0.39991 -2.971,-0.44439 -4.33961,-1.03276 a 6.0957862,6.0957862 0 0 1 -2.64501,-8.45604 7.5878845,7.5878845 0 0 0 -1.29663,-9.12717 c -2.40665,-2.16061 -5.88794,-2.68266 -9.11494,-2.46647 -0.84517,-1.84415 0.56799,-3.92483 2.09082,-5.265 1.52284,-1.34017 3.37203,-2.65774 3.70364,-4.65903 0.52166,-3.14805 -3.49507,-5.53907 -6.54487,-4.60042 -3.04979,0.93865 -4.99635,3.90096 -6.28309,6.821 -0.73828,1.67541 -1.36594,3.43966 -2.5305,4.85238 -1.16455,1.41272 -3.03994,2.42423 -4.81378,1.97086 -2.51125,-0.64183 -3.48114,-3.6254 -4.03693,-6.1571 -0.7457,-3.39671 -1.49573,-6.84055 -1.33949,-10.31464 0.15625,-3.47409 1.32743,-7.04119 3.88919,-9.39302 4.17451,-3.83243 10.57848,-3.45674 16.21232,-2.8454 -1.33104,-1.49968 -1.00209,-4.02709 0.42206,-5.43866 a 6.1834755,6.1834755 0 0 1 5.60452,-1.37687 7.7234419,7.7234419 0 0 1 4.34182,2.59598 c 1.60099,1.95191 2.05625,4.58736 3.26637,6.80293 1.21011,2.21558 3.93115,4.1053 6.15832,2.91666 1.92368,-1.02668 2.22901,-3.69415 1.75023,-5.82146 -0.47877,-2.1273 -1.49563,-4.19588 -1.3222,-6.36949 0.33092,-4.14749 4.63024,-6.64398 8.42413,-8.35208 3.79389,-1.7081 8.13813,-4.00527 8.73919,-8.12229 a 7.4051559,7.4051559 0 0 1 0.4502,-2.36048 4.6303412,4.6303412 0 0 1 1.69869,-1.59744 c 11.07258,-7.31748 22.3293,-14.72427 34.98474,-18.72268 0.6584,-0.20803 0.73569,0.0232 1.40669,-0.13981 0.93911,-0.54276 0.31686,-2.04423 -0.58352,-2.64909 -0.90038,-0.60485 -2.10385,-1.0687 -2.33228,-2.12905 -0.16792,-0.77945 0.29133,-1.5448 0.41064,-2.33316 0.29314,-1.93723 -2.02435,-3.72584 -3.82408,-2.95135 -1.01657,-1.34631 0.99494,-2.91065 2.62143,-3.35846 a 71.18813,71.18813 0 0 1 14.95561,-2.4431 2.6938198,2.6938198 0 0 1 1.70181,0.28947 c 0.84951,0.58846 0.74097,1.93816 0.13892,2.77809 -0.60206,0.83994 -1.53857,1.3673 -2.28883,2.07802 a 6.2475758,6.2475758 0 0 0 -1.62053,6.28373 c 2.64048,1.34313 5.51113,2.72579 8.43559,2.25262 2.92446,-0.47318 5.52014,-3.75903 4.14553,-6.38328 -1.28007,-2.44379 -5.12517,-2.99498 -5.78639,-5.67332 -0.77418,-3.13586 3.66493,-5.92485 2.66499,-8.99617 -0.43801,-1.34534 -1.77877,-2.13711 -2.80757,-3.1084 a 8.4343767,8.4343767 0 0 1 -1.84575,-9.3525 10.640943,10.640943 0 0 1 -9.33253,-2.92047 c -2.23224,-2.25279 -4.0131,-5.80652 -7.18293,-5.70572 -2.90884,0.0925 -5.41431,3.48611 -8.13423,2.45077 -0.66915,-0.25471 -1.37466,-0.77313 -2.02302,-0.46938 a 1.6716936,1.6716936 0 0 0 -0.75461,1.25261 c -0.6912,3.30466 0.49785,7.06992 -1.30326,9.92554 -1.95995,3.10748 -6.49339,3.5383 -8.86946,6.34047 -1.28981,1.52112 -1.78953,3.57082 -2.97509,5.17451 -1.18556,1.60369 -3.70187,2.6233 -5.12464,1.22575 a 7.0633705,7.0633705 0 0 0 -1.91887,-8.58886 18.847256,18.847256 0 0 0 -4.23829,-2.06153 25.136082,25.136082 0 0 1 -4.73489,-2.6389 4.6638406,4.6638406 0 0 1 -1.73821,-1.85989 4.2384033,4.2384033 0 0 1 0.11887,-2.94115 12.026097,12.026097 0 0 1 9.57028,-7.93226 c 1.89435,-0.25772 4.09912,-0.16691 5.35278,-1.61029 0.66333,-0.76371 1.01138,-1.91838 1.97423,-2.22855 a 2.9120009,2.9120009 0 0 1 1.82271,0.22446 l 7.07072,2.48877 a 4.9626371,4.9626371 0 0 0 2.51884,0.4166 1.7077397,1.7077397 0 0 0 1.47666,-1.79469 c -0.22592,-1.17421 -2.03271,-1.73768 -1.8683,-2.92205 a 1.9508004,1.9508004 0 0 1 0.59177,-0.99474 25.279099,25.279099 0 0 1 20.04949,-7.91746 c 0.89244,1.46572 -0.51898,3.20139 -1.69339,4.45264 -1.1744,1.25125 -2.11817,3.48692 -0.6979,4.45006 a 3.8941472,3.8941472 0 0 0 1.88264,0.42399 16.438175,16.438175 0 0 1 5.01097,1.5199 q 3.665,1.59496 7.18933,3.49022 c -0.20754,-1.54917 -0.40562,-3.1812 0.18157,-4.62971 0.58719,-1.44852 2.25602,-2.58469 3.71368,-2.02057 1.4048,0.54366 2.12526,2.40376 3.62191,2.57418 1.99645,0.22732 2.78409,-2.72209 1.95016,-4.55021 -0.83393,-1.82812 -2.48481,-3.35886 -2.62261,-5.36347 -0.093,-1.35239 0.42167,-3.02965 -0.6586,-3.84856 a 2.9403381,2.9403381 0 0 0 -1.27456,-0.44692 l -26.97338,-4.9636 c -1.60173,-0.29475 -3.91596,-0.0688 -3.98699,1.55824 -0.0397,0.90823 0.77163,1.80674 0.4123,2.64178 -0.3835,0.89125 -1.64336,0.80976 -2.56098,1.12499 -1.42381,0.48911 -2.13827,2.17977 -2.00152,3.67902 a 10.237494,10.237494 0 0 0 1.68946,4.14603 c -1.75446,-0.73374 -4.41101,-0.86862 -6.16547,-1.60235 z"
     id="path6"
     style="opacity:0.28400005;fill:#3f3d56;stroke-width:0.69014084"
     inkscape:connector-curvature="0" />
  <path
     d="m 374.52769,284.5032 a 8.7345949,8.7345949 0 0 0 -9.59466,2.87341 c -0.44414,0.58478 -0.81713,1.39091 -0.44532,2.02412 0.53307,0.9078 1.89135,0.54924 2.89276,0.2245 a 7.2804543,7.2804543 0 0 1 4.56922,-0.109 c 0.94033,0.32285 1.78158,0.89344 2.72601,1.20409 a 2.7452146,2.7452146 0 0 0 2.79901,-0.40903 c 0.64816,-0.66106 0.68883,-1.68877 0.68998,-2.6146 a 2.1027418,2.1027418 0 0 0 -0.53583,-1.72822 2.7473333,2.7473333 0 0 0 -1.23917,-0.36652 4.2681967,4.2681967 0 0 1 -2.49795,-1.45955"
     id="path8"
     style="opacity:0.28400005;fill:#3f3d56;stroke-width:0.69014084"
     inkscape:connector-curvature="0" />
  <path
     d="m 384.25373,281.79522 a 2.2219498,2.2219498 0 0 0 -2.14757,3.12936 9.0061032,9.0061032 0 0 0 3.5908,0.23413 3.0691598,3.0691598 0 0 0 2.50981,-2.3011 5.7779556,5.7779556 0 0 1 -4.09108,-0.78134"
     id="path10"
     style="opacity:0.28400005;fill:#3f3d56;stroke-width:0.69014084"
     inkscape:connector-curvature="0" />
  <path
     d="m 416.88574,277.27266 a 41.307192,41.307192 0 0 0 -9.20785,3.12792 6.9182408,6.9182408 0 0 1 4.41859,6.94865 3.6184636,3.6184636 0 0 0 0.0419,1.71801 c 0.33817,0.81983 1.31811,1.12746 2.17962,1.33789 a 14.370506,14.370506 0 0 0 4.78061,0.61019 4.8699029,4.8699029 0 0 0 3.9571,-2.41813 17.234425,17.234425 0 0 1 0.8229,-1.94524 c 2.06504,-3.14501 8.19971,0.65777 10.41685,-2.38191 0.78101,-1.07078 0.70958,-2.68258 1.72772,-3.53107 a 3.8814072,3.8814072 0 0 1 1.7761,-0.6778 124.72988,124.72988 0 0 1 13.49116,-1.92143 c 2.1458,-0.18673 4.9427,-0.95723 4.96055,-3.11105 a 37.370256,37.370256 0 0 0 -23.8383,3.20691 c -2.65733,1.33097 -6.17193,4.13071 -8.73161,2.36616 -0.9584,-0.66068 -0.91094,-2.43972 -2.23002,-3.18263 -1.34861,-0.75954 -3.13377,-0.45062 -4.56535,-0.14647 z"
     id="path12"
     style="opacity:0.28400005;fill:#3f3d56;stroke-width:0.69014084"
     inkscape:connector-curvature="0" />
  <path
     d="m 443.31751,282.21548 3.79399,0.72901 a 4.9164045,4.9164045 0 0 0 -5.11626,5.32795 c 3.55292,1.18691 7.42641,0.0319 11.16902,0.18969 3.74261,0.15777 8.09715,2.83118 7.45827,6.52222 -0.19318,1.11605 -0.8379,2.23135 -0.50264,3.31323 0.23499,0.75829 0.90374,1.29635 1.28121,1.99473 0.78659,1.45529 0.15792,3.29602 -0.8353,4.61893 -0.99322,1.32291 -2.32825,2.37845 -3.20007,3.78433 -2.16833,3.49665 -0.93639,8.01712 0.35528,11.9235 a 10.511777,10.511777 0 0 0 2.02126,4.03652 c 1.91366,2.03469 5.03222,2.21165 7.82514,2.2524 2.03278,0.0297 4.36142,-0.0708 5.64692,-1.64573 1.67829,-2.05621 0.50474,-5.26434 1.60969,-7.67758 1.00351,-2.19172 3.56025,-3.13199 5.87669,-3.79886 4.24376,-1.22171 8.56856,-2.26037 12.58058,-4.10575 4.98192,-2.29149 9.63786,-5.86252 15.11357,-6.15749 1.5362,-0.0828 3.11046,0.0985 4.59021,-0.32234 1.47974,-0.4209 2.88539,-1.70025 2.77337,-3.23459 -0.0957,-1.31099 -1.20488,-2.27366 -2.07156,-3.26194 -0.86668,-0.98829 -1.5473,-2.50798 -0.75077,-3.55359 l 14.35255,-2.6808 c -1.01737,-2.77261 -1.80993,-6.42418 0.52788,-8.22891 0.8435,-0.65115 1.97288,-0.91141 2.69106,-1.69862 1.22405,-1.34171 0.60853,-3.65292 -0.80445,-4.79396 -1.41298,-1.14105 -3.3235,-1.40593 -5.13344,-1.55627 -6.29327,-0.52266 -12.62268,-0.17729 -18.92813,0.16834 q -18.48873,1.01344 -36.97746,2.02688 c -2.48129,0.13601 -5.3461,-0.0718 -7.62184,0.77475 -1.92658,0.71666 -3.2964,2.03217 -5.49985,2.49437 -4.06766,0.85326 -8.54407,0.27587 -12.22492,2.55958 z"
     id="path14"
     style="opacity:0.28400005;fill:#3f3d56;stroke-width:0.69014084"
     inkscape:connector-curvature="0" />
  <path
     d="m 511.28571,312.20434 a 1.5266329,1.5266329 0 0 0 -1.10434,0.25046 1.3942432,1.3942432 0 0 0 -0.3595,0.85156 5.6236126,5.6236126 0 0 0 0.81686,4.02514 3.9414978,3.9414978 0 0 0 3.60805,1.72983 c 1.70835,-0.21784 2.96732,-1.67529 4.53788,-2.38647 2.42063,-1.09513 12.70057,-2.80233 5.58946,-6.64418 -2.45065,-1.32398 -4.03418,-0.15522 -5.96569,0.71672 a 13.57429,13.57429 0 0 1 -7.12272,1.45694 z"
     id="path16"
     style="opacity:0.28400005;fill:#3f3d56;stroke-width:0.69014084"
     inkscape:connector-curvature="0" />
  <path
     d="m 573.5708,280.04664 a 4.0601813,4.0601813 0 0 0 -1.97549,1.71957 1.735014,1.735014 0 0 0 0.65069,2.30162 2.5895119,2.5895119 0 0 0 0.96865,0.15365 l 3.37627,0.10086 c 1.43432,0.0429 3.22594,0.34833 3.61136,1.73054 0.28619,1.02634 -0.35436,2.34519 0.41851,3.07863 a 2.1771873,2.1771873 0 0 0 1.14854,0.44796 7.8269769,7.8269769 0 0 0 3.4019,0.10979 c 2.45658,-0.65892 1.16577,-2.15825 1.93948,-3.49329 1.18382,-2.04271 0.97888,-0.80616 3.06481,-1.97688 1.54047,-0.86459 3.53109,-2.43297 2.24532,-4.63657 -2.23592,-3.83201 -15.55063,-1.1821 -18.85004,0.46412 z"
     id="path18"
     style="opacity:0.28400005;fill:#3f3d56;stroke-width:0.69014084"
     inkscape:connector-curvature="0" />
  <path
     d="m 640.21002,278.12009 -1.9605,0.26162 c -4.42099,0.58996 -8.86703,1.18535 -13.12504,2.51296 a 21.844579,21.844579 0 0 0 5.74807,1.41046 17.656956,17.656956 0 0 1 3.21982,0.4577 c 1.8807,0.55987 3.77576,2.00563 5.59274,1.26502 1.12658,-0.4592 1.49421,-1.63222 2.42743,-2.25389 0.6444,-0.42927 3.08849,-1.12406 3.36172,-1.55733 2.20886,-3.50272 -3.56634,-2.32311 -5.26424,-2.09654 z"
     id="path20"
     style="opacity:0.28400005;fill:#3f3d56;stroke-width:0.69014084"
     inkscape:connector-curvature="0" />
  <path
     d="m 648.81882,287.0305 a 36.768412,36.768412 0 0 0 -7.23488,5.29834 c -0.92114,0.86591 -1.862,1.94286 -1.77845,3.20432 0.11102,1.67662 1.897,2.64914 3.44431,3.30425 l 6.26733,2.65348 c 0.76031,-1.07162 0.0644,-2.55089 -0.72135,-3.60398 -0.78578,-1.05309 -1.71955,-2.27149 -1.37238,-3.53874 0.39618,-1.44616 2.15945,-1.93896 3.63805,-2.1881 2.40912,-0.40592 8.90791,-0.37336 8.12704,-4.25588 -0.92009,-4.57479 -7.95135,-2.22542 -10.36967,-0.87369 z"
     id="path22"
     style="opacity:0.28400005;fill:#3f3d56;stroke-width:0.69014084"
     inkscape:connector-curvature="0" />
  <path
     d="m 647.55852,545.92109 c -0.59665,1.72733 -0.65325,3.76215 0.37882,5.27027 1.15811,1.69228 3.47583,2.3231 5.48103,1.89395 a 9.8738449,9.8738449 0 0 0 5.08881,-3.27183 17.524146,17.524146 0 0 0 2.927,-4.48863 35.036531,35.036531 0 0 0 2.16951,-7.93822 l 1.94592,-10.21685 c 0.43484,-2.2834 0.41801,-9.28392 -3.7788,-7.00307 -1.1465,0.62309 -3.80105,5.54268 -5.00256,6.93774 -2.16551,2.51434 -2.45202,4.95399 -3.59202,8.00003 -1.42791,3.81536 -4.29772,6.99516 -5.61771,10.81661 z"
     id="path24"
     style="opacity:0.28400005;fill:#3f3d56;stroke-width:0.69014084"
     inkscape:connector-curvature="0" />
  <path
     d="m 869.21939,598.20431 a 30.59553,30.59553 0 0 1 -3.98796,-1.89847 33.614945,33.614945 0 0 0 -2.02162,11.01802 l 9.39687,-5.31738 c 1.41359,-0.79987 3.01576,-1.91133 2.98536,-3.53526 a 1.1184215,1.1184215 0 0 0 -0.51951,-1.01694 1.2668363,1.2668363 0 0 0 -0.65875,-0.0773 c -1.3934,0.11612 -2.66386,0.80175 -3.97831,1.27853 -1.31445,0.47678 -2.85145,0.72879 -4.05747,0.0212"
     id="path26"
     style="opacity:0.28400005;fill:#3f3d56;stroke-width:0.69014084"
     inkscape:connector-curvature="0" />
  <path
     d="m 918.78985,601.36117 a 20.339831,20.339831 0 0 0 -3.01347,1.08145 c -2.15642,1.09719 -3.62338,3.18119 -5.56391,4.62631 -1.85697,1.38289 -4.09237,2.14215 -6.28684,2.88038 -0.64554,0.57062 -0.34891,1.71983 0.35182,2.2211 a 4.3584878,4.3584878 0 0 0 2.48184,0.55785 c 2.27983,0.0503 4.68171,0.0723 6.67863,-1.02887 a 21.061973,21.061973 0 0 0 3.14434,-2.49564 c 2.33479,-1.94809 5.13864,-3.23343 7.91414,-4.47557 a 9.0836336,9.0836336 0 0 0 2.75844,-1.64924 c 1.74408,-1.71827 1.86671,-4.36907 -0.64813,-4.95388 -2.03196,-0.47257 -5.88207,2.61019 -7.81686,3.23611 z"
     id="path28"
     style="opacity:0.28400005;fill:#3f3d56;stroke-width:0.69014084"
     inkscape:connector-curvature="0" />
  <path
     d="m 940.69227,587.05426 a 7.8389853,7.8389853 0 0 0 -2.39841,-6.42289 c -0.0257,2.36556 -0.0975,4.88567 -1.42799,6.84179 -0.94796,1.39376 -2.43428,2.33527 -3.47286,3.66288 -1.03857,1.32761 -1.49959,3.432 -0.28136,4.59695 a 4.5651988,4.5651988 0 0 0 2.70553,0.93184 c 2.42499,0.28546 5.23186,0.44456 6.93267,-1.30739 0.92833,-0.95624 1.37989,-2.37252 2.51212,-3.07555 a 3.0563025,3.0563025 0 0 0 1.10215,-0.78871 c 0.4675,-0.74317 -0.27532,-1.72259 -1.11147,-1.99037 -0.83615,-0.26777 -1.75758,-0.14189 -2.59793,-0.39621 -0.84034,-0.25431 -1.6113,-1.19925 -1.18014,-1.96406"
     id="path30"
     style="opacity:0.28400005;fill:#3f3d56;stroke-width:0.69014084"
     inkscape:connector-curvature="0" />
  <path
     d="m 901.76494,500.32348 a 10.900533,10.900533 0 0 1 -3.88959,0.22934 c -2.15886,-0.3969 -3.83911,-2.02392 -5.58205,-3.35823 a 24.622154,24.622154 0 0 0 -14.38642,-5.0265 c -4.73611,-0.0894 -9.51646,1.19394 -14.168,0.29853 0.3039,1.69035 1.75034,2.95814 3.29364,3.71169 1.5433,0.75355 3.24659,1.13276 4.7973,1.87097 a 11.454088,11.454088 0 0 1 5.54818,5.77199 c 0.49945,1.16581 0.81368,2.43449 1.57024,3.45243 1.54633,2.08065 4.47735,2.53753 7.06409,2.36738 3.37253,-0.22185 6.89493,-1.19181 10.03249,0.0647 2.40024,0.96121 4.11812,3.06203 6.12224,4.69555 2.00412,1.63352 4.82691,2.8459 7.12818,1.66726 a 11.783851,11.783851 0 0 1 -8.15357,-11.33897 c 2.25707,0.20756 8.75803,0.12723 8.40785,-3.70788 -0.2967,-3.25021 -5.84652,-1.04905 -7.78458,-0.69825 z"
     id="path32"
     style="opacity:0.28400005;fill:#3f3d56;stroke-width:0.69014084"
     inkscape:connector-curvature="0" />
  <path
     d="m 872.23848,526.76769 c 0.40075,-2.198 2.5927,-4.139 1.90992,-6.26634 -0.4722,-1.47118 -2.17798,-2.19752 -3.72266,-2.2338 -1.54468,-0.0363 -3.06216,0.42385 -4.60665,0.46718 a 22.450219,22.450219 0 0 0 -3.01647,0.0428 c -3.06592,0.50398 -4.95569,3.71752 -7.84502,4.86014 -1.75687,0.69477 -3.73057,0.56196 -5.55775,1.04226 -4.14768,1.09028 -6.77206,5.00963 -9.67144,8.16962 a 34.514302,34.514302 0 0 1 -17.51857,10.21651 c -2.35828,0.54606 -4.89341,0.89542 -6.76792,2.42705 -2.4823,2.02824 -3.09334,5.50535 -3.64561,8.66298 a 143.08882,143.08882 0 0 1 -6.96559,25.5703 l 9.8486,1.25744 c 1.87245,0.23907 3.81266,0.47301 5.61699,-0.0816 a 16.306365,16.306365 0 0 0 3.6945,-1.96794 36.882837,36.882837 0 0 1 14.40976,-5.20141 c 2.57905,-0.35408 5.28303,-0.41896 7.70329,0.53969 2.42027,0.95865 4.49663,3.13263 4.69947,5.72793 a 6.0503611,6.0503611 0 0 1 6.0471,1.47069 10.511238,10.511238 0 0 1 2.88706,5.76341 c 0.25942,1.34739 0.51898,2.96183 1.76928,3.52708 1.02002,0.46115 2.19013,-0.0355 3.30598,-0.12482 3.78645,-0.30298 6.92848,4.1121 10.65017,3.35182 3.99145,-0.81539 4.97139,-6.79313 8.86533,-7.99055 2.23643,-0.68772 5.37343,0.14855 6.44435,-1.93176 0.94393,-1.8336 -0.93933,-3.94955 -0.74512,-6.00269 0.23914,-2.5281 3.22119,-3.60116 5.52007,-4.67985 7.92558,-3.71886 11.68654,-14.38598 7.84599,-22.25329 -2.27551,-4.66136 -6.75284,-8.33069 -7.57972,-13.45149 -0.63619,-3.93985 0.91691,-8.53413 -1.59504,-11.6353 -1.27784,-1.57758 -3.4414,-2.44837 -4.20179,-4.33077 -0.47863,-1.1849 -0.28625,-2.52928 -0.54383,-3.78097 -0.25757,-1.25169 -1.3496,-2.56097 -2.58563,-2.23654 -3.58797,0.94177 -4.73288,12.02557 -6.65386,14.71863 -2.92008,4.09364 -8.91477,1.39714 -7.99519,-3.64644 z"
     id="path34"
     style="opacity:0.28400005;fill:#3f3d56;stroke-width:0.69014084"
     inkscape:connector-curvature="0" />
  <path
     d="m 805.9199,504.51133 c -1.22613,-0.3438 -2.56499,-0.68248 -3.73981,-0.19117 -1.17482,0.49131 -1.86091,2.21619 -0.918,3.07207 7.37655,-0.28735 14.79826,-0.57271 22.11211,0.42905 8.42674,1.15419 16.76634,4.01317 25.23006,3.17207 a 128.40319,128.40319 0 0 0 -14.71799,-3.41527 l -8.28576,-1.58281 a 64.066035,64.066035 0 0 0 -6.72831,-1.03965 c -4.72698,-0.39039 -8.30471,0.85888 -12.9523,-0.44429 z"
     id="path36"
     style="opacity:0.28400005;fill:#3f3d56;stroke-width:0.69014084"
     inkscape:connector-curvature="0" />
  <path
     d="m 813.30465,478.8202 c -0.61238,-0.0511 -1.37082,-0.0952 -1.68763,0.43134 -0.30269,0.50306 0.0438,1.16772 -0.11899,1.73184 -0.22236,0.77066 -1.23165,0.96753 -2.02686,0.86261 -0.79521,-0.10492 -1.65524,-0.3562 -2.35976,0.0272 a 2.0000833,2.0000833 0 0 0 -0.7733,2.27186 5.8486468,5.8486468 0 0 0 1.36391,2.1742 22.212114,22.212114 0 0 0 3.53888,3.54963 c 2.53526,1.87141 5.96998,2.77324 7.56678,5.48985 a 3.6425633,3.6425633 0 0 0 1.01059,1.36015 c 0.76656,0.48556 1.76628,0.11616 2.59161,-0.26095 l 2.89307,-1.3219 a 3.2862091,3.2862091 0 0 0 1.35245,-0.91981 c 0.66096,-0.89682 0.25498,-2.17194 -0.29978,-3.13807 -0.55477,-0.96613 -1.26491,-1.96598 -1.14585,-3.07367 0.21226,-1.97499 2.75162,-2.73043 3.79577,-4.42022 1.05247,-1.70327 0.36731,-3.89787 0.48862,-5.89657 0.14196,-2.33732 1.61064,-5.37764 -0.75234,-7.12399 -2.00824,-1.48417 -3.92771,-0.1128 -5.36955,1.52576 -3.04054,3.45537 -4.47824,7.19748 -10.06762,6.73072 z"
     id="path38"
     style="opacity:0.28400005;fill:#3f3d56;stroke-width:0.69014084"
     inkscape:connector-curvature="0" />
  <path
     d="m 830.86568,443.89704 c 0.98771,1.89116 3.04678,3.01973 4.12384,4.86147 1.16743,1.99627 1.03442,4.57554 2.30093,6.51048 1.29939,1.98521 3.91433,3.03918 4.64305,5.29714 0.79558,2.46513 -1.00952,5.46134 0.42937,7.61527 a 3.1966909,3.1966909 0 0 0 4.68916,0.43082 3.4395998,3.4395998 0 0 0 -0.14197,-4.79897 c -0.85194,-0.77676 -2.07525,-1.11242 -2.78657,-2.01971 a 4.2381548,4.2381548 0 0 1 -0.72173,-1.75728 11.504282,11.504282 0 0 1 0.18098,-5.51365 2.4536232,2.4536232 0 0 0 0.13867,-1.44219 c -0.32023,-0.93082 -1.5806,-0.99686 -2.46518,-1.42867 -2.00912,-0.98073 -1.96036,-3.81615 -1.60934,-6.02417 -0.23371,1.47 -5.46998,-1.0302 -6.01829,-1.86287 -1.08926,-1.65414 -0.49643,-4.84497 -0.71206,-6.67287 -2.3516,1.13317 -3.25848,4.49292 -2.05086,6.8052 z"
     id="path40"
     style="opacity:0.28400005;fill:#3f3d56;stroke-width:0.69014084"
     inkscape:connector-curvature="0" />
  <path
     d="m 778.11351,472.99464 c -0.96647,-1.08193 -2.42218,-2.21377 -3.71789,-1.56127 -0.98855,0.4978 -1.26048,1.86557 -0.87303,2.90235 a 6.3885163,6.3885163 0 0 0 2.10832,2.51349 c 2.70021,2.22696 5.60787,4.23687 7.96354,6.82558 4.21561,4.6327 6.44878,10.88377 11.03345,15.15156 a 6.1884238,6.1884238 0 0 0 3.47416,1.88022 c 1.33571,0.12426 2.83564,-0.73072 2.98918,-2.06338 0.12646,-1.09776 -0.63882,-2.08033 -1.3867,-2.89382 -1.78092,-1.93716 -3.73061,-3.72025 -5.41203,-5.74438 a 4.8268795,4.8268795 0 0 1 -1.38336,-2.88913 c -0.009,-1.08987 0.98533,-2.23059 2.04127,-1.96069 -1.28424,-0.32825 -2.23666,-2.46778 -4.12152,-2.86997 -1.57521,-0.33609 -1.95628,0.63907 -3.83093,-0.16494 -3.57543,-1.53349 -6.38059,-6.32261 -8.88446,-9.12562 z"
     id="path42"
     style="opacity:0.28400005;fill:#3f3d56;stroke-width:0.69014084"
     inkscape:connector-curvature="0" />
  <path
     d="m 862.12579,367.64704 a 29.606552,29.606552 0 0 1 -3.0206,-1.07902 c -2.65471,-0.79686 -6.16716,1.15441 -5.8133,3.90344 0.23511,1.8265 1.93499,3.05794 2.87374,4.64227 1.39218,2.34951 1.02104,5.32952 0.28946,7.96071 a 6.2232552,6.2232552 0 0 1 -1.00444,2.265 7.6714536,7.6714536 0 0 1 -2.37883,1.71123 31.817611,31.817611 0 0 0 -9.30994,7.90929 2.2794661,2.2794661 0 0 0 -0.56223,1.05983 c -0.1266,0.92817 0.80637,1.60429 1.33385,2.37842 1.1717,1.71963 0.32481,4.0336 0.44064,6.11124 a 1.7278366,1.7278366 0 0 0 0.72804,1.51595 c 0.70622,0.35874 1.54306,-0.25062 1.92584,-0.94411 1.27029,-2.3014 0.31337,-5.99553 2.69638,-7.10516 0.45077,-0.2099 0.99725,-0.29839 1.29797,-0.69437 0.47711,-0.62817 0.0168,-1.55829 0.25859,-2.30913 0.36301,-1.12733 1.90488,-1.17794 3.08816,-1.12794 a 17.527886,17.527886 0 0 0 6.0209,-0.80157 4.0078203,4.0078203 0 0 0 1.99312,-1.15416 c 0.71237,-0.88904 0.64923,-2.15315 0.50689,-3.28344 a 44.508735,44.508735 0 0 0 -5.25854,-16.04554 c 2.0933,0.2674 4.37072,0.49897 6.17707,-0.59194 1.01148,-0.61088 2.22443,-2.43769 1.72276,-3.68108 -0.79333,-1.96629 -2.22649,-0.31122 -4.00553,-0.63992 z"
     id="path44"
     style="opacity:0.28400005;fill:#3f3d56;stroke-width:0.69014084"
     inkscape:connector-curvature="0" />
  <path
     d="m 593.76525,398.63887 c 0.25052,1.34358 0.49678,2.7583 0.0565,4.05215 -0.44032,1.29386 -1.82546,2.37494 -3.13342,1.9785 -1.01509,-0.30768 -1.60144,-1.32833 -2.32224,-2.10648 -4.00843,-4.32738 -13.05209,-1.82197 -15.52833,-7.17566 -1.0106,-2.18498 -0.3238,-4.80269 -1.01312,-7.10921 a 6.3278046,6.3278046 0 0 0 -6.40815,-4.35329 13.167784,13.167784 0 0 0 -3.68758,1.10077 92.980286,92.980286 0 0 1 -24.43181,6.11072 20.073899,20.073899 0 0 0 -4.69446,0.85416 c -3.44229,1.24796 -5.7943,4.43926 -7.46812,7.6958 -1.67383,3.25654 -2.90953,6.78209 -5.15363,9.67532 -2.35846,3.04069 -5.66336,5.16995 -8.74619,7.47305 a 8.9235968,8.9235968 0 0 0 -2.88527,3.02399 c -0.66834,1.3721 -0.63064,2.96806 -0.57876,4.49339 l 0.63007,18.52593 c 0.081,2.38289 0.1828,4.85096 1.2493,6.98341 1.33178,2.66286 3.96267,4.40692 5.78781,6.75924 a 13.239185,13.239185 0 0 1 2.74655,8.45461 c -0.0389,1.22642 -0.16071,2.67701 0.79444,3.44726 a 3.4933203,3.4933203 0 0 0 1.95335,0.56177 l 25.06015,2.05104 c 4.40826,0.3608 9.29364,0.95401 12.17171,4.31254 1.35832,1.58506 2.44947,3.86448 4.53,4.03456 0.89241,0.0729 1.76075,-0.29339 2.65335,-0.36409 2.25196,-0.17835 4.23028,1.53086 5.4788,3.4135 a 15.144071,15.144071 0 0 1 2.43241,9.7175 c -0.20472,2.14758 -0.87056,4.2354 -1.01411,6.38795 -0.54622,8.19043 6.39702,15.30633 6.5316,23.51386 0.0792,4.82775 -2.21265,9.3385 -4.44704,13.6188 3.60621,5.46309 0.65326,12.73786 2.08897,19.12449 1.3621,6.05917 6.41417,10.80265 7.67307,16.8841 0.5763,2.78407 0.60965,6.21017 3.06465,7.64411 a 6.9858677,6.9858677 0 0 0 3.46778,0.69434 45.716233,45.716233 0 0 0 20.81815,-4.73949 c 3.03567,-1.50641 6.18174,-3.75525 6.7119,-7.10241 0.42754,-2.69927 -0.94131,-5.71854 0.45176,-8.06975 1.64185,-2.77113 5.8479,-2.55145 8.26361,-4.68201 3.91904,-3.45639 0.86304,-10.04823 2.45091,-15.02659 1.42731,-4.47494 6.34057,-6.85231 8.77603,-10.86863 a 19.314026,19.314026 0 0 0 2.03937,-5.52721 78.844104,78.844104 0 0 0 2.07495,-14.09706 84.498352,84.498352 0 0 1 0.63779,-8.63466 c 2.62582,-16.31338 18.75336,-27.2371 23.98948,-42.90882 0.50006,-1.49666 0.73489,-3.49019 -0.59657,-4.33707 a 3.8131937,3.8131937 0 0 0 -2.53572,-0.2654 l -11.55216,1.45643 c -1.43488,0.1809 -2.95581,0.34998 -4.27354,-0.246 -1.31772,-0.59598 -2.26212,-2.26297 -1.56316,-3.52906 1.96207,-3.55402 -2.07397,-8.04516 -3.86704,-11.68736 a 172.46213,172.46213 0 0 0 -17.17386,-27.85179 2.8309991,2.8309991 0 0 1 -0.75294,-1.63478 l 3.27863,0.10916 c -1.10674,-3.97133 -2.93318,-8.31715 -6.79142,-9.76988 -2.17411,-0.81861 -4.58176,-0.53555 -6.90141,-0.4088 -6.6441,0.36296 -13.76709,-0.64017 -20.343,-1.65695 z"
     id="path46"
     style="opacity:0.28400005;fill:#3f3d56;stroke-width:0.69014084"
     inkscape:connector-curvature="0" />
  <path
     d="m 614.11366,309.14434 c 1.7386,1.84632 3.68686,3.80386 6.20241,4.12566 4.44313,0.56845 7.63771,-4.02617 9.67164,-8.01709 a 3.9173636,3.9173636 0 0 0 4.08777,3.62408 8.069658,8.069658 0 0 0 3.07458,-1.20203 60.570534,60.570534 0 0 1 28.69531,-7.41797 3.0989256,3.0989256 0 0 1 2.36649,-3.4068 c 2.03966,-0.40437 3.87696,1.35906 4.86088,3.19089 0.98392,1.83183 1.59743,3.95507 3.16066,5.32621 1.56323,1.37115 4.58976,1.31141 5.20722,-0.67415 0.59279,-1.90623 -1.39308,-3.53184 -3.04295,-4.65569 -1.64987,-1.12384 -3.3889,-3.20392 -2.27784,-4.86243 8.42891,-1.8658 16.91009,-3.73867 25.53507,-4.10952 a 10.692932,10.692932 0 0 0 4.2983,-0.74046 c 1.31533,-0.64546 2.36079,-2.11065 2.00709,-3.53249 a 9.7336013,9.7336013 0 0 1 -10.15763,-3.83136 c 11.96773,-0.98759 24.69669,-1.82937 35.30285,3.80194 1.27275,2.73227 -5.21401,5.0055 -3.47845,7.46986 0.55353,0.78597 1.6627,0.87815 2.62385,0.89599 7.37035,0.13684 14.78323,0.27102 22.07038,-0.84172 2.66303,-0.40664 5.35286,-0.98069 8.0265,-0.65093 4.4533,0.54922 8.26218,3.52058 12.64338,4.48936 1.7832,0.39431 3.78262,0.40767 5.28579,-0.6295 1.50317,-1.03716 2.1493,-3.39879 0.9175,-4.74709 4.12506,-4.04293 10.97141,-3.04091 16.41338,-1.10536 5.44197,1.93556 10.59745,5.05696 16.35726,5.4884 4.1303,0.30939 8.31799,-0.8016 12.39922,-0.0954 2.56466,0.44376 4.95155,1.58471 7.45814,2.28568 4.7408,1.32576 9.75576,1.0459 14.67803,1.1097 a 102.84603,102.84603 0 0 1 36.65065,7.28273 10.89682,10.89682 0 0 1 4.07437,2.40721 c 1.08582,1.16278 1.63959,2.96967 0.9098,4.38337 l -12.05864,-1.76193 c 1.13616,2.23662 4.07547,2.61776 6.46248,3.38935 2.38701,0.77158 4.86198,3.40763 3.42745,5.46563 -2.58635,-0.8235 -4.9301,1.76233 -6.23658,4.1415 -1.30649,2.37917 -2.89859,5.22851 -5.609,5.37344 -2.42709,0.12978 -5.36244,-1.93686 -6.94446,-0.0916 a 47.363358,47.363358 0 0 1 5.58013,8.92118 c 1.56297,3.25617 2.67619,7.35905 0.56368,10.28868 a 2.6667042,2.6667042 0 0 1 -1.42573,1.10561 c -1.72528,0.43676 -2.84626,-1.67386 -4.08356,-2.95311 -1.55911,-1.61205 -3.91697,-2.06865 -6.02835,-2.82468 -2.11138,-0.75603 -4.33554,-2.24327 -4.50074,-4.47983 -0.10278,-1.39154 0.63192,-2.6851 1.17308,-3.97121 a 15.300119,15.300119 0 0 0 1.1625,-6.86247 c -0.11846,-1.8877 -0.64778,-3.85133 -2.00347,-5.17028 -1.3557,-1.31894 -3.69632,-1.73735 -5.15171,-0.52933 -0.6791,0.56365 -1.22334,1.46527 -2.10523,1.49898 -1.55822,0.0596 -2.75461,-2.65704 -4.00826,-1.72969 a 4.2596113,4.2596113 0 0 1 -0.57882,2.84882 c -3.741,3.25359 -9.48806,1.87714 -14.31092,3.02648 a 26.86122,26.86122 0 0 0 -6.52918,2.85137 4.2010046,4.2010046 0 0 0 -1.86626,1.5665 c -0.60202,1.1699 0.0617,2.66823 1.12286,3.4461 a 8.9143283,8.9143283 0 0 0 3.70232,1.2637 c 5.87966,1.11356 11.84508,2.83738 16.48707,6.61393 4.64199,3.77655 7.68609,10.0194 6.21716,15.82048 L 840.99817,350.6738 q 0.66059,6.97791 0.74976,13.99426 a 6.2916275,6.2916275 0 0 1 -0.36754,2.69175 c -0.8266,1.82574 -3.06695,2.44011 -5.03013,2.84315 a 3.9401589,3.9401589 0 0 0 -3.02474,5.04821 c 0.69751,2.27354 2.43667,4.0461 4.02913,5.81232 1.59246,1.76622 3.15957,3.77361 3.36804,6.14258 0.20847,2.36897 -1.57881,5.03917 -3.95121,4.87446 -1.79847,-0.12487 -3.13276,-1.73486 -3.89987,-3.3663 -0.7671,-1.63145 -1.22355,-3.44884 -2.37615,-4.83505 -3.48862,-4.19576 -11.32452,-2.39812 -14.44978,-6.87112 a 7.0679117,7.0679117 0 0 0 -1.46158,6.72611 c 1.45393,-0.91018 3.44433,-0.0645 4.53671,1.25801 1.09237,1.32252 1.60771,3.01808 2.46557,4.50347 1.1576,2.00438 2.99989,3.78128 3.16147,6.0903 a 19.907333,19.907333 0 0 0 0.0441,2.61929 c 0.28702,1.39906 1.46954,2.40363 2.28943,3.57304 1.90776,2.72103 1.8135,6.45907 0.58386,9.54641 -1.22964,3.08734 -3.43877,5.66711 -5.62688,8.16825 -3.82183,4.36859 -7.72165,8.71157 -12.25255,12.33946 -1.29286,1.03521 -2.67264,2.05311 -3.47786,3.50039 -0.80521,1.44728 -0.8465,3.47875 0.39086,4.57968 -0.88536,0.0443 -2.47316,0.4798 -3.35852,0.52414 a 78.083424,78.083424 0 0 1 -0.20248,-10.68144 c -3.49392,-1.67765 -7.25587,2.81517 -6.80501,6.66469 0.45087,3.84952 3.23515,6.93868 5.21747,10.26919 1.44963,2.4355 2.52697,5.27537 2.043,8.06803 -0.48397,2.79266 -2.97682,5.36892 -5.80038,5.12261 -4.49121,-0.39176 -6.36982,-6.83933 -10.81727,-7.57723 a 1.8172857,1.8172857 0 0 0 -1.17048,0.1162 c -0.6602,0.36233 -0.77495,1.24571 -0.81202,1.99787 -0.18196,3.69167 -0.33949,7.53008 1.1016,10.93372 2.10823,4.97931 7.55459,9.16135 6.4121,14.44652 -6.15456,-2.86088 -9.3545,-9.76283 -10.80738,-16.3925 -1.45287,-6.62967 -1.69502,-13.58956 -4.2994,-19.85697 -1.9776,2.53474 -6.1343,0.43935 -7.94118,-2.21978 -1.71302,-2.52099 -2.76771,-5.43724 -4.42968,-7.99218 -1.66198,-2.55493 -4.20799,-4.84271 -7.25269,-4.9832 -3.19222,-0.14732 -5.96075,2.04331 -8.39545,4.11314 -2.00205,1.70203 -4.05755,3.47103 -5.22782,5.82381 -1.70297,3.4237 -1.2575,7.45988 -1.33956,11.28285 -0.0887,4.13299 -0.96464,8.49363 -3.78151,11.51929 -2.81687,3.02566 -8.0162,4.07952 -11.12321,1.35264 -1.62207,-1.42363 -2.40745,-3.55062 -3.10701,-5.59228 A 273.76801,273.76801 0 0 1 716.3904,426.8228 c -0.52207,2.31921 -2.55857,5.30844 -4.50405,3.94229 a 4.033321,4.033321 0 0 1 -1.03766,-1.33695 c -3.62897,-6.15065 -10.34945,-9.83989 -17.13965,-12.05193 -6.7902,-2.21204 -13.93435,-3.24386 -20.64925,-5.67495 a 52.303524,52.303524 0 0 1 -10.71179,-5.33575 8.4245974,8.4245974 0 0 0 -0.51484,8.61762 c 1.48951,2.63742 4.86015,4.16339 7.74545,3.24152 1.49101,-0.4764 2.75017,-1.51147 4.22961,-2.02269 1.47944,-0.51123 3.46515,-0.26019 4.11207,1.16517 0.61923,1.36431 -0.31673,3.01474 0.14756,4.43924 0.70715,2.16959 3.97935,2.33674 5.12357,4.31105 0.85135,1.46895 0.15085,3.41959 -1.06471,4.60492 -1.21556,1.18533 -2.83737,1.83544 -4.3212,2.66057 -4.81457,2.67725 -8.2383,7.24752 -12.44595,10.80328 -4.20764,3.55577 -10.14414,6.15183 -15.15869,3.871 1.19533,-6.05264 -6.01457,-10.49631 -7.34095,-16.52159 -0.43657,-1.98317 -0.21026,-4.08983 -0.83354,-6.02246 -0.9024,-2.79814 -3.3849,-4.72203 -5.42145,-6.84252 a 26.854491,26.854491 0 0 1 -7.36578,-19.53802 c 0.11005,-2.49016 0.56755,-5.02088 2.4e-4,-7.44806 -0.5673,-2.42717 -2.57685,-4.77641 -5.06701,-4.66641 -5.6875,0.25121 -12.85253,0.67427 -15.83651,-4.17408 -1.06499,-1.7304 -1.52845,-4.26476 0.0113,-5.5905 1.08622,-0.93521 2.6896,-0.84712 4.11607,-0.70679 l 12.81476,1.26061 c 2.99718,0.29484 6.23707,0.53817 8.80902,-1.02872 2.57194,-1.56689 3.68639,-5.7261 1.30487,-7.56954 -1.7401,-1.34696 -4.85771,-1.27392 -5.36354,-3.41551 -0.42127,-1.78361 1.55294,-3.80733 0.48668,-5.29791 -0.76453,-1.06878 -2.48336,-0.77226 -3.52491,0.0289 -1.04156,0.80121 -1.79725,1.97292 -2.96292,2.57955 -2.04483,1.0642 -4.4881,0.0514 -6.68809,-0.63694 -2.19999,-0.68834 -5.14931,-0.74679 -6.21639,1.29652 -1.19339,2.28518 1.05853,5.27957 -0.12584,7.56943 -1.56586,3.02747 -6.86868,1.30401 -9.0678,3.90812 -2.52346,2.98819 1.71715,7.44401 0.86613,11.26146 a 7.0102435,7.0102435 0 0 1 -6.90651,-0.38802 6.7083966,6.7083966 0 0 1 -2.89903,-6.24615 c 0.21065,-1.71728 1.10595,-3.47025 0.50607,-5.09308 -0.48502,-1.31208 -1.8024,-2.09319 -3.02676,-2.76979 l -12.45306,-6.88145 c -1.15618,2.14478 0.30549,4.80372 2.13353,6.41466 1.82804,1.61093 4.11773,2.82423 5.31861,4.9443 a 6.4899256,6.4899256 0 0 1 -2.44209,8.5562 1.4981577,1.4981577 0 0 1 -1.2344,0.21533 1.7221084,1.7221084 0 0 1 -0.80056,-1.07654 c -2.19723,-5.62284 -5.49612,-11.16673 -10.77026,-14.10401 -5.27414,-2.93728 -12.85254,-2.33336 -16.31109,2.61464 -0.82148,1.17524 -1.37282,2.51487 -2.08844,3.75741 -3.80198,6.60142 -11.9528,9.72744 -19.56805,9.52325 a 3.8857896,3.8857896 0 0 1 -2.1347,-0.50162 c -1.23073,-0.85001 -1.17531,-2.65371 -0.9869,-4.13754 l 0.79936,-6.29704 c 0.16052,-1.26449 0.39312,-2.66216 1.39394,-3.4515 1.41076,-1.11268 3.44587,-0.4105 5.24246,-0.43637 a 6.6438201,6.6438201 0 0 0 6.03046,-4.65405 7.4875656,7.4875656 0 0 0 -2.08455,-7.44611 c -0.82344,-0.77341 -1.92868,-1.74493 -1.49375,-2.78755 a 2.3044423,2.3044423 0 0 1 1.61603,-1.08823 c 3.22716,-0.93715 6.63709,-1.18279 9.81044,-2.28856 3.17335,-1.10577 6.25081,-3.36814 7.00232,-6.6435 0.23031,-1.00375 0.33516,-2.21966 1.23677,-2.71731 a 3.7086236,3.7086236 0 0 1 1.42928,-0.29202 6.9549218,6.9549218 0 0 0 5.96575,-7.25046 c 1.52082,-1.06267 3.65154,-0.28097 5.12282,0.84931 1.47128,1.13027 2.77023,2.62355 4.56045,3.11078 3.33624,0.90802 6.56034,-2.04588 10.01791,-2.05958 1.45401,-0.006 2.9592,0.50835 4.3271,0.0154 1.38672,-0.49974 2.21485,-1.88015 3.27915,-2.89997 1.0643,-1.01982 2.93176,-1.64185 3.91452,-0.54324 l -0.83688,-6.19884 a 12.18641,12.18641 0 0 0 9.91771,-1.79306 L 595.567,322.80396 a 2.3515583,2.3515583 0 0 1 -1.01141,-0.54078 c -0.78634,-0.84673 -0.005,-2.16621 0.63412,-3.12873 1.52967,-2.3026 1.78645,-6.09554 -0.72904,-7.2419 -1.71699,-0.78247 -3.68782,0.15678 -5.33584,1.07568 l -7.89424,4.40168 c -0.25086,1.50055 1.58413,2.35098 2.72123,3.36173 a 4.5625693,4.5625693 0 0 1 -2.97534,7.97233 5.6851662,5.6851662 0 0 1 1.01532,4.81994 l -5.31144,0.382 a 2.301109,2.301109 0 0 1 -1.72272,-0.33623 c -0.56807,-0.50453 -0.49103,-1.38864 -0.6227,-2.13692 -0.31778,-1.80604 -2.08622,-3.07186 -3.89105,-3.39643 -1.80483,-0.32456 -3.65121,0.0915 -5.4384,0.50225 a 3.2457323,3.2457323 0 0 1 -2.3377,-0.054 2.3343323,2.3343323 0 0 1 -0.92485,-1.16733 c -0.78352,-1.89978 -0.0512,-4.13281 1.20725,-5.75747 1.25841,-1.62465 2.98108,-2.81232 4.52822,-4.16485 a 26.392759,26.392759 0 0 0 7.84791,-12.17244 c 2.92396,-1.22509 5.95109,-2.88962 8.87501,-4.11474 a 27.157352,27.157352 0 0 1 14.59735,-2.82825 l 9.9022,0.18914 c 2.93172,0.056 5.94274,0.12775 8.65363,1.24542 2.7109,1.11768 5.09289,3.53506 5.28005,6.46134 a 1.9834302,1.9834302 0 0 1 -0.63493,1.8133 2.3392461,2.3392461 0 0 1 -1.25192,0.28219 c -2.73418,0.0961 -3.89993,0.77735 -6.63405,0.8734 z"
     id="path48"
     style="opacity:0.28400005;fill:#3f3d56;stroke-width:0.69014084"
     inkscape:connector-curvature="0" />
  <path
     d="m 535.18676,340.1782 a 2.8975425,2.8975425 0 0 0 0.79012,-2.9142 5.4200072,5.4200072 0 0 0 -5.61216,1.05974 9.4616513,9.4616513 0 0 0 -1.50353,1.98767 c -1.30118,2.12288 -2.45207,4.6586 -1.69799,7.03159 a 1.9975367,1.9975367 0 0 0 0.91419,1.25037 2.4033809,2.4033809 0 0 0 1.06558,0.16691 35.722656,35.722656 0 0 0 4.28826,-0.26393 c 0.87378,-0.10684 1.88866,-0.35359 2.22635,-1.16653 0.44389,-1.06861 -0.6305,-2.27797 -0.31729,-3.39192 a 3.7056353,3.7056353 0 0 1 0.915,-1.31036 1.7323501,1.7323501 0 0 0 0.53962,-1.45434 c -0.1264,-0.52268 -0.92673,-0.8192 -1.21483,-0.36509"
     id="path50"
     style="opacity:0.28400005;fill:#3f3d56;stroke-width:0.69014084"
     inkscape:connector-curvature="0" />
  <path
     d="m 542.6197,330.54152 a 11.997933,11.997933 0 0 0 -3.88596,-0.24402 1.6946339,1.6946339 0 0 0 -0.82802,0.18817 1.381517,1.381517 0 0 0 -0.51026,0.73893 3.6710799,3.6710799 0 0 0 2.1373,4.49877 4.5930667,4.5930667 0 0 1 1.32536,0.53261 c 1.09907,0.85273 0.39842,2.59572 0.60648,3.97114 0.23362,1.54448 1.72863,2.8409 1.45454,4.37872 -0.21594,1.21153 -1.50993,2.17086 -1.30161,3.38376 0.2182,1.27032 1.83018,1.65203 3.11508,1.75376 a 3.9176327,3.9176327 0 0 0 2.20701,-0.25294 3.4173565,3.4173565 0 0 0 1.39242,-2.01652 12.925413,12.925413 0 0 0 0.65117,-4.86687 4.6149717,4.6149717 0 0 0 -0.5488,-2.14811 11.993516,11.993516 0 0 0 -1.28247,-1.46853 c -2.46176,-2.86354 0.13032,-7.13486 -4.53224,-8.44887 z"
     id="path52"
     style="opacity:0.28400005;fill:#3f3d56;stroke-width:0.69014084"
     inkscape:connector-curvature="0" />
  <path
     d="m 866.33838,554.86179 c 0,0 -188.54744,-108.22965 -269.71968,-87.72298 0,0 -172.02818,18.51296 -191.96522,59.24149 0,0 -54.68445,-170.88892 -74.62148,-176.58522"
     stroke-miterlimit="10"
     id="path54"
     style="opacity:0.28400005;fill:none;stroke:#6c63ff;stroke-width:1.38028169;stroke-miterlimit:10"
     inkscape:connector-curvature="0" />
  <path
     d="M 404.65348,526.3803 C 436.26794,442.0751 721.0828,348.65582 721.0828,348.65582 680.63909,358.90916 596.6187,467.13881 596.6187,467.13881 c 0,0 -177.72449,-129.30595 -266.58671,-117.34373 0,0 391.33562,12.81667 536.30637,205.06671"
     stroke-miterlimit="10"
     id="path56"
     style="opacity:0.28400005;fill:none;stroke:#6c63ff;stroke-width:1.38028169;stroke-miterlimit:10"
     inkscape:connector-curvature="0" />
  <circle
     cx="330.03198"
     cy="349.79507"
     r="8.2596331"
     id="circle58"
     style="opacity:0.28400005;fill:#6c63ff;stroke-width:0.69014084" />
  <circle
     cx="404.65347"
     cy="526.38031"
     r="8.2596331"
     id="circle60"
     style="opacity:0.28400005;fill:#6c63ff;stroke-width:0.69014084" />
  <circle
     cx="721.08282"
     cy="348.65582"
     r="8.2596331"
     id="circle62"
     style="opacity:0.28400005;fill:#6c63ff;stroke-width:0.69014084" />
  <circle
     cx="866.33838"
     cy="554.86176"
     r="8.2596331"
     id="circle64"
     style="opacity:0.28400005;fill:#6c63ff;stroke-width:0.69014084" />
  <circle
     cx="596.61871"
     cy="467.13882"
     r="8.2596331"
     id="circle66"
     style="opacity:0.28400005;fill:#6c63ff;stroke-width:0.69014084" />
</svg>
